<?xml version="1.0" standalone="no"?>
<!DOCTYPE svg PUBLIC "-//W3C//DTD SVG 20010904//EN"
 "http://www.w3.org/TR/2001/REC-SVG-20010904/DTD/svg10.dtd">
<svg version="1.0" xmlns="http://www.w3.org/2000/svg"
 width="55.000000pt" height="40.000000pt" viewBox="0 0 453.000000 360.000000"
 preserveAspectRatio="xMidYMid meet">

<g transform="translate(0.000000,360.000000) scale(0.100000,-0.100000)"
fill="red" stroke="none">
<path d="M2460 2830 c0 -7 -16 -10 -45 -7 -35 3 -45 1 -41 -10 3 -7 1 -13 -4
-13 -5 0 -10 6 -12 14 -3 12 -9 12 -40 1 -21 -7 -38 -9 -38 -4 0 5 -7 6 -15 3
-8 -4 -15 -13 -15 -21 0 -11 -4 -13 -12 -6 -18 13 -78 16 -78 4 0 -5 -8 -10
-17 -9 -40 1 -123 -27 -123 -41 0 -12 -3 -12 -12 -3 -17 17 -29 15 -22 -3 7
-17 -11 -21 -21 -5 -10 15 -28 12 -22 -4 6 -16 -19 -30 -28 -16 -3 6 -17 -2
-31 -18 -21 -23 -24 -24 -14 -4 7 15 8 22 0 22 -6 0 -13 -6 -16 -14 -3 -7 -17
-13 -31 -13 -15 0 -31 -7 -37 -14 -6 -8 -20 -13 -32 -11 -11 2 -28 -6 -39 -18
-17 -19 -17 -21 0 -40 10 -11 22 -17 27 -14 6 4 6 9 -2 14 -7 4 2 10 22 14 19
4 34 2 36 -4 5 -15 22 -12 22 4 0 7 9 16 20 19 11 3 20 1 20 -4 0 -5 5 -9 11
-9 5 0 7 5 3 11 -4 8 0 9 15 4 12 -4 21 -2 21 4 0 6 -7 11 -15 11 -8 0 -15 5
-15 10 0 15 16 12 34 -6 15 -14 16 -14 16 0 0 9 3 15 8 14 4 -1 17 3 30 10 12
7 22 9 22 5 0 -4 7 1 15 11 15 20 15 20 15 0 1 -19 1 -19 15 0 8 11 15 15 15
9 0 -16 42 -8 80 15 25 16 38 18 52 11 11 -6 25 -9 33 -7 24 5 0 31 -29 31
-26 0 -34 11 -16 22 6 4 24 0 40 -9 21 -10 30 -11 30 -3 0 8 3 7 9 -2 12 -19
61 -24 54 -5 -3 8 0 14 5 14 6 0 17 6 25 14 9 9 19 11 28 5 12 -7 11 -9 -2 -9
-9 0 -16 -7 -16 -15 0 -19 18 -19 43 0 22 16 74 20 74 5 0 -5 12 -10 26 -10
20 0 24 3 16 13 -5 6 -6 21 -2 32 7 19 7 19 19 -3 14 -26 24 -28 45 -6 9 8 16
13 16 9 0 -3 9 -1 21 6 19 9 20 8 14 -10 -6 -19 -5 -19 24 -5 17 9 31 21 31
28 0 13 -21 14 -87 1 -19 -3 -34 -1 -38 6 -6 8 -10 7 -16 -2 -6 -10 -9 -11 -9
-1 0 6 -9 12 -20 12 -12 0 -17 -5 -14 -14 3 -8 1 -17 -5 -21 -6 -3 -9 0 -5 8
3 8 1 18 -5 22 -6 3 -11 1 -11 -5z m-145 -40 c-3 -5 -13 -10 -21 -10 -8 0 -14
-4 -14 -10 0 -5 -6 -10 -12 -10 -7 1 -2 10 11 20 25 21 46 27 36 10z m-195
-58 c0 -15 -11 -21 -27 -15 -12 5 -12 7 -1 14 17 11 28 11 28 1z"/>
<path d="M2827 2828 c-10 -5 -25 -7 -33 -4 -8 3 -14 2 -14 -2 0 -12 17 -34 26
-35 5 -1 8 -4 7 -7 -1 -3 15 -4 35 -4 20 1 45 -2 54 -7 12 -6 18 -6 18 1 0 7
8 6 23 -1 12 -7 29 -15 37 -20 8 -4 14 -12 13 -18 -2 -6 21 -18 51 -26 30 -9
57 -23 60 -32 4 -10 15 -14 31 -11 15 3 22 1 18 -5 -4 -6 0 -8 10 -4 10 3 17
2 17 -4 0 -6 4 -8 9 -5 5 3 19 -5 32 -18 13 -13 29 -21 37 -18 11 4 13 0 7
-16 -4 -16 -2 -22 8 -22 8 0 17 -7 21 -15 3 -8 12 -15 19 -15 8 0 29 -18 48
-41 21 -27 39 -39 50 -36 12 3 17 -1 16 -14 -1 -11 -5 -19 -10 -19 -5 0 -4 -7
3 -15 6 -8 9 -19 5 -25 -3 -5 -1 -10 4 -10 6 0 10 -3 9 -7 0 -5 2 -17 6 -28
17 -44 25 -72 29 -105 3 -19 9 -44 13 -55 7 -18 6 -19 -11 -5 -17 14 -18 14
-7 -6 9 -16 8 -26 -2 -40 -10 -12 -11 -24 -5 -36 6 -10 5 -19 -1 -23 -15 -9
-12 -25 5 -25 13 0 14 -4 3 -22 -7 -13 -11 -26 -10 -30 1 -5 -5 -8 -13 -8 -9
0 -12 -6 -8 -17 5 -11 3 -14 -6 -8 -10 5 -11 2 -7 -13 4 -11 2 -23 -4 -27 -17
-10 -11 -44 9 -55 11 -6 22 -6 25 -1 3 5 -4 11 -17 15 -13 3 -18 9 -12 13 6 5
16 21 23 36 10 23 15 26 31 17 20 -10 40 3 21 15 -6 4 -5 13 2 25 10 16 9 25
-4 48 -16 26 -15 29 3 52 17 21 19 21 10 3 -8 -16 -7 -22 5 -27 24 -9 27 -8
21 14 -3 11 -1 20 4 20 5 0 9 12 9 28 0 15 4 34 10 42 6 9 5 17 -2 21 -5 4
-11 29 -11 57 -1 36 -5 48 -14 45 -7 -3 -13 -1 -13 5 0 6 5 12 11 14 9 3 9 10
0 26 -7 13 -16 20 -22 17 -13 -9 -11 9 3 23 9 9 7 19 -10 42 -12 16 -22 38
-22 50 0 11 -4 20 -10 20 -5 0 -10 5 -10 12 0 13 -49 68 -61 68 -4 0 -32 25
-63 55 -30 30 -59 55 -65 55 -6 0 -19 8 -29 18 -32 30 -120 67 -181 76 -18 3
-38 9 -44 15 -6 6 -15 5 -24 -5 -15 -14 -33 -11 -33 6 0 5 8 7 18 3 13 -4 14
-3 6 6 -6 6 -35 14 -65 18 -30 3 -59 9 -64 14 -6 4 -18 3 -28 -3z m293 -118
c0 -5 -4 -10 -10 -10 -5 0 -10 5 -10 10 0 6 5 10 10 10 6 0 10 -4 10 -10z
m405 -460 c3 -5 2 -10 -4 -10 -5 0 -13 5 -16 10 -3 6 -2 10 4 10 5 0 13 -4 16
-10z m3 -63 c14 4 14 3 2 -5 -16 -12 -30 -7 -29 11 0 9 2 9 5 0 3 -7 13 -9 22
-6z m2 -57 c0 -5 -5 -10 -11 -10 -5 0 -7 5 -4 10 3 6 8 10 11 10 2 0 4 -4 4
-10z"/>
<path d="M2756 2811 c4 -17 3 -21 -6 -16 -8 5 -11 4 -6 -3 3 -5 1 -12 -6 -14
-8 -3 -6 -7 4 -11 22 -8 33 26 18 50 -9 15 -10 15 -4 -6z"/>
<path d="M2716 2793 c-6 -14 -5 -15 5 -6 7 7 10 15 7 18 -3 3 -9 -2 -12 -12z"/>
<path d="M2643 2783 c-15 -5 -17 -23 -4 -23 5 0 11 7 15 15 3 8 4 15 3 14 -1
0 -8 -3 -14 -6z"/>
<path d="M2570 2770 c0 -5 5 -10 10 -10 6 0 10 5 10 10 0 6 -4 10 -10 10 -5 0
-10 -4 -10 -10z"/>
<path d="M2780 2770 c0 -5 5 -10 11 -10 5 0 7 5 4 10 -3 6 -8 10 -11 10 -2 0
-4 -4 -4 -10z"/>
<path d="M1675 2620 c-3 -5 -14 -10 -23 -10 -10 0 -22 -10 -27 -22 -7 -15 -19
-23 -35 -23 -30 0 -90 -34 -90 -51 0 -7 -8 -10 -20 -7 -11 3 -20 1 -20 -5 0
-5 -12 -13 -26 -16 -19 -5 -24 -11 -19 -25 5 -16 1 -19 -20 -17 -25 3 -34 -7
-15 -19 19 -12 -1 -24 -29 -19 -19 4 -30 1 -33 -8 -4 -10 4 -14 29 -15 20 -1
39 -7 44 -15 5 -7 9 -8 9 -2 0 5 -4 14 -9 20 -6 5 -1 13 15 21 13 6 22 7 18 2
-3 -5 4 -9 15 -9 12 0 21 5 21 11 0 5 -5 7 -12 3 -7 -4 -8 -3 -4 4 4 7 20 10
39 7 29 -5 30 -4 14 9 -11 8 -24 13 -31 10 -7 -3 -12 5 -13 18 -2 16 0 19 6 9
6 -8 16 -11 31 -6 15 5 25 2 31 -6 4 -7 11 -10 16 -6 4 5 1 12 -6 17 -12 7
-12 11 1 23 10 10 20 12 29 6 31 -19 55 -10 66 26 6 19 7 35 2 37 -4 2 2 8 15
14 22 10 25 9 29 -15 5 -24 4 -25 -9 -6 -8 10 -14 14 -14 8 0 -13 29 -38 32
-27 2 16 4 94 2 94 -2 0 -6 -4 -9 -10z m-65 -89 c0 -5 -9 -11 -20 -14 -20 -5
-26 3 -13 16 9 10 33 8 33 -2z"/>
<path d="M1315 2371 c-11 -5 -24 -7 -30 -5 -10 4 -23 -8 -117 -106 -56 -58
-124 -151 -120 -166 1 -6 -9 -22 -23 -35 -13 -13 -25 -29 -25 -36 0 -7 -11
-33 -25 -59 -47 -88 -76 -211 -53 -225 10 -7 9 -9 -4 -9 -10 0 -18 -7 -18 -15
0 -8 5 -15 12 -15 6 0 3 -10 -8 -22 -10 -12 -13 -18 -5 -13 10 6 12 2 6 -14
l-7 -22 38 22 c24 13 33 15 26 6 -10 -12 -10 -16 3 -21 16 -6 17 -3 18 86 1
25 5 44 9 42 12 -8 10 34 -3 58 -10 18 -9 20 5 15 11 -4 19 0 23 11 4 9 11 20
17 24 7 5 5 8 -4 8 -13 0 -13 2 -1 9 8 5 14 23 14 40 0 16 5 28 10 24 5 -3 6
3 2 16 -4 13 -2 21 5 21 14 0 55 49 55 65 0 5 8 16 18 24 10 7 16 20 13 28 -7
18 4 40 13 25 4 -6 11 -4 19 4 9 10 9 14 1 14 -6 0 0 9 14 20 17 14 24 26 20
37 -5 12 -2 15 9 10 9 -3 23 2 34 14 9 10 13 19 8 20 -5 1 2 4 16 8 19 5 25
14 25 36 1 19 6 31 15 31 8 1 20 3 25 4 6 1 13 2 16 2 10 -1 6 33 -5 40 -13 9
-15 9 -41 -1z m-240 -311 c3 -5 2 -10 -4 -10 -5 0 -13 5 -16 10 -3 6 -2 10 4
10 5 0 13 -4 16 -10z"/>
<path d="M3525 2019 c-4 -6 -5 -12 -2 -15 2 -3 7 2 10 11 7 17 1 20 -8 4z"/>
<path d="M3455 1931 c-3 -5 -1 -12 5 -16 12 -7 30 2 30 16 0 12 -27 12 -35 0z"/>
<path d="M3468 1893 c7 -3 16 -2 19 1 4 3 -2 6 -13 5 -11 0 -14 -3 -6 -6z"/>
<path d="M3391 1858 c-1 -10 -6 -18 -11 -18 -23 0 -90 -86 -90 -115 0 -9 -4
-14 -9 -11 -5 3 -31 -20 -57 -51 -27 -31 -65 -70 -84 -87 -19 -17 -64 -58
-100 -91 -36 -33 -98 -87 -137 -118 -40 -32 -73 -62 -73 -67 0 -5 -15 -16 -32
-24 -47 -20 -109 -81 -96 -94 6 -6 1 -8 -16 -5 -21 4 -28 0 -36 -22 -6 -15 -8
-30 -6 -32 7 -8 26 7 26 20 0 7 10 13 21 14 30 3 48 21 30 32 -9 6 -10 11 -2
15 6 4 13 -4 17 -18 5 -21 8 -23 27 -12 46 24 96 68 91 81 -3 7 -1 16 5 20 6
3 11 -1 11 -11 0 -15 5 -13 28 9 15 15 34 27 41 27 8 0 11 6 7 16 -3 8 -2 13
3 10 5 -3 14 8 20 24 5 17 13 30 17 30 3 0 4 -6 1 -14 -5 -12 -1 -12 22 0 30
15 69 54 55 54 -5 1 6 7 24 15 18 8 31 19 27 25 -3 5 0 10 8 10 10 0 14 7 10
23 -3 16 -2 18 5 9 7 -11 10 -11 15 2 4 9 13 16 21 16 8 0 18 5 22 12 4 7 3 8
-4 4 -7 -4 -12 -1 -12 8 0 9 7 16 15 16 8 0 20 9 27 20 7 11 18 20 25 20 7 0
13 5 13 10 0 6 7 10 15 10 8 0 15 7 15 15 0 8 6 12 13 10 15 -6 52 59 43 74
-4 6 -2 11 4 11 6 0 10 10 8 23 -2 17 1 21 17 19 15 -2 17 -1 6 7 -8 5 -21 7
-30 4 -9 -3 -1 10 18 30 18 19 31 41 28 49 -4 9 -6 7 -6 -4z m-71 -162 c0 -3
-4 -8 -10 -11 -5 -3 -10 -1 -10 4 0 6 5 11 10 11 6 0 10 -2 10 -4z m-73 -62
c-3 -3 -12 -4 -19 -1 -8 3 -5 6 6 6 11 1 17 -2 13 -5z m-30 -50 c-3 -3 -12 -4
-19 -1 -8 3 -5 6 6 6 11 1 17 -2 13 -5z m-65 -41 c-6 -3 -10 -9 -6 -14 3 -5 1
-9 -5 -9 -5 0 -12 4 -16 9 -6 11 27 33 35 24 3 -3 -1 -8 -8 -10z m-112 -143
c0 -5 -5 -10 -11 -10 -5 0 -7 5 -4 10 3 6 8 10 11 10 2 0 4 -4 4 -10z m-210
-170 c-8 -5 -17 -7 -19 -4 -3 3 1 9 9 14 8 5 17 7 19 4 3 -3 -1 -9 -9 -14z"/>
<path d="M3403 1839 c-6 -6 -9 -18 -6 -27 5 -11 3 -13 -8 -7 -8 5 -11 4 -6 0
15 -17 37 -13 37 7 0 14 5 18 16 14 10 -4 14 -1 12 6 -6 17 -31 21 -45 7z"/>
<path d="M3370 1746 c0 -9 5 -16 10 -16 6 0 10 4 10 9 0 6 -4 13 -10 16 -5 3
-10 -1 -10 -9z"/>
<path d="M933 1626 c4 -11 1 -13 -10 -9 -12 5 -15 2 -11 -9 4 -9 1 -21 -5 -27
-8 -8 -8 -14 0 -22 6 -6 9 -19 5 -28 -5 -13 -3 -14 9 -4 12 10 15 8 17 -13 1
-14 -2 -23 -7 -20 -5 3 -11 -5 -13 -19 -3 -13 -1 -22 3 -19 5 3 9 -9 9 -25 0
-26 4 -30 22 -28 15 1 23 -4 26 -18 2 -16 1 -17 -7 -5 -5 8 -13 12 -16 8 -3
-3 2 -14 12 -24 10 -10 18 -25 18 -33 0 -9 7 -15 16 -13 11 1 16 -6 16 -29 0
-23 10 -41 39 -70 21 -21 45 -38 52 -39 7 0 15 -6 18 -14 3 -9 18 -12 45 -10
33 2 38 0 29 -11 -16 -19 38 -48 63 -33 21 11 51 -7 40 -25 -3 -6 -1 -7 5 -3
7 4 12 3 12 -2 0 -10 37 -26 84 -37 23 -5 27 -8 15 -16 -10 -6 -2 -9 26 -10
22 0 49 -3 60 -5 11 -3 38 -6 61 -8 22 -1 46 -6 53 -10 6 -4 25 -11 41 -16 23
-7 30 -5 30 5 0 9 -6 12 -16 8 -11 -4 -15 -2 -12 7 2 8 9 15 15 17 14 5 45
-26 38 -38 -4 -5 -2 -9 3 -9 6 0 12 6 15 14 7 17 62 15 97 -4 14 -8 33 -13 43
-11 9 1 17 -4 17 -11 0 -10 3 -9 11 2 8 11 12 12 16 3 6 -15 53 -18 53 -3 0 6
-6 10 -12 10 -10 0 -9 3 1 9 9 6 10 11 2 15 -6 4 -16 4 -23 0 -7 -5 -9 -2 -6
7 4 9 -1 15 -11 16 -30 3 -86 11 -86 13 0 4 -45 10 -82 13 -17 1 -29 6 -26 10
3 5 -8 7 -23 6 -16 -2 -47 2 -69 8 -125 37 -244 60 -254 50 -8 -8 -11 -6 -11
5 0 9 -5 20 -12 24 -8 5 -9 0 -5 -17 l6 -24 -17 21 c-9 11 -44 35 -76 54 -33
18 -66 38 -73 46 -8 7 -29 21 -48 30 -19 9 -33 19 -31 23 5 7 -22 46 -32 46
-4 0 -6 3 -5 8 2 4 -2 7 -7 7 -5 0 -10 6 -10 14 0 8 -5 16 -11 18 -5 2 -11 12
-13 23 -1 11 -12 24 -24 30 -23 10 -30 25 -12 25 15 0 1 53 -18 68 -10 7 -11
12 -4 12 7 0 12 5 12 11 0 6 -8 8 -19 4 -16 -5 -18 -2 -14 15 4 15 8 18 13 10
6 -9 9 -9 15 -1 4 7 1 18 -5 26 -7 8 -9 15 -4 15 10 0 -28 29 -40 30 -4 0 -6
-7 -3 -14z m54 -158 c-3 -8 -6 -5 -6 6 -1 11 2 17 5 13 3 -3 4 -12 1 -19z
m-27 -12 c0 -3 -4 -8 -10 -11 -5 -3 -10 -1 -10 4 0 6 5 11 10 11 6 0 10 -2 10
-4z m435 -366 c3 -5 2 -10 -4 -10 -5 0 -13 5 -16 10 -3 6 -2 10 4 10 5 0 13
-4 16 -10z m102 -43 c-11 -4 -22 -5 -25 -2 -3 3 0 5 6 5 7 0 12 7 12 15 0 13
2 14 14 3 12 -11 11 -14 -7 -21z m73 -7 c0 -5 -2 -10 -4 -10 -3 0 -8 5 -11 10
-3 6 -1 10 4 10 6 0 11 -4 11 -10z m40 -10 c0 -5 -5 -10 -11 -10 -5 0 -7 5 -4
10 3 6 8 10 11 10 2 0 4 -4 4 -10z m160 -10 c0 -5 -5 -10 -11 -10 -5 0 -7 5
-4 10 3 6 8 10 11 10 2 0 4 -4 4 -10z m70 -14 c0 -3 -4 -8 -10 -11 -5 -3 -10
-1 -10 4 0 6 5 11 10 11 6 0 10 -2 10 -4z"/>
<path d="M2608 1133 c-7 -10 -20 -19 -28 -21 -8 -2 -20 -10 -26 -18 -6 -7 -16
-14 -22 -14 -19 0 -24 -20 -8 -36 10 -10 24 -13 38 -8 21 6 21 7 3 20 -23 17
-12 18 17 3 13 -7 18 -7 14 -1 -4 6 -1 14 6 19 16 10 40 73 28 73 -5 0 -15 -8
-22 -17z"/>
<path d="M2472 1033 c-10 -4 -10 -8 -2 -19 9 -10 16 -11 31 -1 10 6 19 15 19
19 0 9 -28 9 -48 1z"/>
<path d="M1980 997 c0 -20 9 -25 31 -20 27 8 24 28 -6 31 -15 1 -25 -3 -25
-11z"/>
<path d="M2076 995 c-11 -8 -15 -15 -9 -15 7 0 15 5 18 11 4 6 13 8 21 5 8 -3
14 -1 14 4 0 14 -22 12 -44 -5z"/>
<path d="M2416 1002 c-13 -12 -4 -17 28 -17 18 0 32 5 30 10 -5 11 -49 16 -58
7z"/>
<path d="M2033 964 c-7 -7 -13 -19 -13 -26 0 -9 3 -10 8 -2 4 6 12 13 19 15 7
2 9 9 5 15 -5 9 -10 8 -19 -2z"/>
<path d="M2100 970 c-9 -6 -10 -10 -3 -10 6 0 15 5 18 10 8 12 4 12 -15 0z"/>
<path d="M2398 968 c5 -5 16 -8 23 -6 8 3 3 7 -10 11 -17 4 -21 3 -13 -5z"/>
<path d="M1810 960 c0 -5 4 -10 9 -10 6 0 13 5 16 10 3 6 -1 10 -9 10 -9 0
-16 -4 -16 -10z"/>
<path d="M2360 928 c0 -4 4 -8 9 -8 6 0 12 4 15 8 3 5 -1 9 -9 9 -8 0 -15 -4
-15 -9z"/>
<path d="M2267 904 c-26 -17 -37 -30 -33 -41 5 -12 1 -14 -19 -11 -14 3 -28 1
-31 -3 -7 -11 47 -11 64 -1 7 5 10 16 7 24 -4 9 1 18 12 22 10 3 24 9 32 12 9
4 11 2 7 -5 -4 -6 -5 -11 -2 -11 3 0 10 9 16 20 15 28 -5 25 -53 -6z"/>
<path d="M2270 870 c0 -5 5 -10 11 -10 5 0 7 5 4 10 -3 6 -8 10 -11 10 -2 0
-4 -4 -4 -10z"/>
</g>
</svg>
