<?xml version="1.0" standalone="no"?>
<!DOCTYPE svg PUBLIC "-//W3C//DTD SVG 20010904//EN"
 "http://www.w3.org/TR/2001/REC-SVG-20010904/DTD/svg10.dtd">
<svg version="1.0" xmlns="http://www.w3.org/2000/svg"
 width="195.000000pt" height="214.000000pt" viewBox="0 0 195.000000 214.000000"
 preserveAspectRatio="xMidYMid meet">

<g transform="translate(0.000000,214.000000) scale(0.100000,-0.100000)"
fill="red" stroke="none">
<path d="M0 1070 l0 -1070 975 0 975 0 0 1070 0 1070 -975 0 -975 0 0 -1070z
m1736 903 c18 -24 17 -83 -1 -107 -8 -11 -15 -29 -15 -41 0 -11 -9 -27 -20
-35 -11 -8 -20 -24 -20 -36 0 -12 -6 -24 -14 -27 -8 -3 -17 -19 -20 -34 -4
-16 -16 -35 -26 -43 -11 -8 -20 -21 -20 -30 0 -9 -9 -22 -20 -30 -11 -8 -20
-22 -20 -31 0 -8 -11 -22 -25 -29 -14 -7 -25 -21 -25 -29 0 -9 -9 -22 -20 -29
-11 -7 -20 -19 -20 -27 0 -8 -9 -20 -20 -27 -11 -7 -20 -17 -20 -23 0 -6 -9
-16 -20 -23 -11 -7 -20 -17 -20 -23 0 -5 -10 -20 -22 -33 -30 -31 -58 -65 -58
-71 0 -2 -20 -25 -45 -51 -25 -25 -45 -49 -45 -53 0 -3 -9 -13 -20 -21 -11 -8
-20 -21 -20 -30 0 -9 -9 -22 -20 -30 -11 -8 -20 -19 -20 -25 0 -6 -9 -17 -20
-25 -11 -8 -20 -20 -20 -27 0 -7 -9 -18 -20 -25 -11 -7 -20 -20 -20 -28 0 -8
-9 -21 -20 -28 -11 -7 -20 -18 -20 -25 0 -7 -9 -18 -20 -25 -11 -7 -20 -18
-20 -25 0 -7 -9 -18 -20 -25 -11 -7 -20 -19 -20 -27 0 -8 -4 -15 -10 -15 -5 0
-12 -11 -16 -24 -3 -13 -16 -29 -30 -36 -14 -8 -24 -22 -24 -34 0 -12 -9 -28
-20 -36 -11 -8 -20 -22 -20 -31 0 -10 -3 -19 -7 -21 -12 -5 -63 -86 -63 -98 0
-20 -26 -38 -70 -50 -69 -19 -99 -2 -126 72 -3 10 -10 18 -15 18 -5 0 -9 9 -9
20 0 11 -6 20 -12 20 -14 1 -53 81 -107 215 -18 44 -39 93 -47 108 -8 16 -14
39 -14 52 0 13 -4 27 -10 30 -5 3 -10 19 -10 35 0 16 -5 32 -10 35 -6 4 -7 12
-3 18 4 7 8 17 8 22 0 6 5 19 12 30 10 17 22 20 74 20 67 0 65 1 74 -65 2 -14
9 -38 15 -55 7 -16 14 -37 15 -45 4 -20 48 -140 62 -165 5 -11 13 -32 17 -48
3 -15 11 -27 16 -27 6 0 10 -8 10 -19 0 -10 8 -29 18 -42 30 -39 33 -56 10
-62 -13 -4 -19 -11 -15 -21 3 -8 -1 -17 -10 -20 -8 -4 -13 -13 -10 -20 3 -8 1
-16 -5 -18 -13 -5 -2 -28 13 -28 6 0 8 4 5 9 -4 5 -2 20 3 33 6 12 10 17 10 9
1 -11 5 -11 19 2 14 13 21 14 30 5 9 -9 15 -9 25 1 8 10 9 12 0 7 -7 -4 -17 2
-23 14 -10 18 -8 20 17 21 15 0 37 5 48 10 16 7 14 8 -10 3 -28 -5 -29 -4 -11
9 19 14 19 15 -8 33 -28 17 -29 17 -42 -1 -8 -10 -14 -15 -14 -11 0 9 32 68
41 76 3 3 11 14 17 25 9 16 11 17 12 4 0 -9 -7 -22 -15 -29 -13 -11 -13 -15
-3 -21 8 -5 15 -2 20 9 5 12 7 10 7 -10 1 -16 5 -28 11 -28 5 0 7 6 4 14 -3 8
3 16 15 19 15 4 19 10 14 23 -5 14 -2 16 19 12 32 -6 28 9 -9 36 -26 19 -26
19 -21 -2 4 -14 2 -22 -6 -22 -19 0 -12 54 11 83 11 15 24 23 28 19 5 -4 6 0
3 8 -3 9 4 28 17 44 l22 28 -1 -46 c-1 -25 -4 -46 -8 -46 -5 0 -8 6 -9 13 0 9
-2 9 -6 0 -2 -7 2 -20 11 -28 8 -9 14 -21 12 -28 -1 -7 -1 -9 1 -4 3 4 12 7
20 7 13 0 13 3 3 15 -10 13 -9 15 12 15 22 0 24 4 23 43 -1 24 -4 48 -8 53 -8
14 34 15 50 2 8 -6 16 -8 20 -4 4 3 -2 13 -13 21 -18 14 -18 14 7 15 20 0 28
6 33 25 4 14 11 25 18 25 6 0 3 9 -7 20 -10 11 -14 20 -9 20 12 0 -18 20 -30
20 -6 0 -5 -5 2 -12 9 -9 5 -15 -21 -26 -27 -11 -30 -15 -17 -25 26 -21 24
-40 -5 -35 -14 3 -25 2 -25 -3 0 -5 -9 -13 -21 -19 -19 -10 -20 -10 -10 8 6
11 17 26 24 34 7 7 24 29 37 48 13 19 30 41 36 48 15 15 34 16 34 1 0 -5 -4
-7 -10 -4 -5 3 -10 1 -10 -4 0 -17 18 -13 30 7 8 14 9 13 6 -10 -5 -33 20 -60
34 -38 6 10 4 17 -5 23 -8 4 -15 13 -15 18 0 6 5 7 10 4 6 -3 10 -2 10 4 0 5
-4 13 -10 16 -5 3 -10 11 -10 18 0 6 6 4 13 -5 16 -20 45 -30 52 -18 4 6 -1
10 -9 10 -17 0 -19 46 -3 67 11 15 0 36 -15 27 -6 -4 -6 2 1 15 7 11 17 21 23
21 9 0 9 -3 1 -11 -9 -9 -8 -15 3 -26 12 -12 12 -18 2 -31 -11 -13 -10 -15 4
-9 10 3 20 2 23 -3 4 -6 11 -10 16 -10 6 0 7 5 3 11 -3 6 0 15 7 20 11 7 9 9
-5 9 -16 0 -17 3 -8 12 7 7 12 20 12 29 0 9 6 19 14 22 10 4 12 0 8 -15 -3
-14 -1 -19 6 -14 7 4 12 13 12 21 0 8 8 12 19 10 17 -3 18 -1 9 26 -6 17 -8
33 -4 36 3 4 6 -1 6 -10 0 -10 5 -17 10 -17 6 0 10 5 10 11 0 5 5 7 10 4 12
-7 13 25 2 41 -9 14 -52 25 -52 13 0 -5 9 -9 21 -9 11 0 18 -4 15 -9 -4 -5
-14 -8 -24 -6 -9 2 -20 4 -24 4 -12 1 -9 31 2 31 6 0 16 11 22 25 6 13 19 27
30 31 10 3 16 9 13 13 -4 8 4 19 60 82 12 15 31 38 40 53 14 20 20 24 26 14 6
-9 9 -10 9 -1 0 7 6 10 14 7 15 -6 28 30 16 43 -5 4 -2 17 6 27 13 19 14 18
15 -10 0 -16 3 -23 6 -17 3 10 10 9 26 -2 26 -17 36 -11 61 35 l19 35 -21 -19
c-12 -11 -22 -15 -22 -10 0 5 -11 16 -25 25 -26 15 -26 15 -7 37 19 21 20 22
25 3 3 -14 1 -18 -9 -14 -8 3 -14 1 -14 -5 0 -13 19 -10 46 8 19 11 20 17 11
37 -7 17 -13 20 -18 11 -4 -7 -11 -10 -14 -6 -3 3 2 14 12 24 10 9 18 20 19
23 3 25 18 61 24 61 4 0 18 25 30 55 12 30 26 52 31 49 5 -3 9 0 9 5 0 19 81
13 96 -6z m-311 -363 c-3 -5 -11 -10 -16 -10 -6 0 -7 5 -4 10 3 6 11 10 16 10
6 0 7 -4 4 -10z m-237 -298 c-9 -2 -19 -10 -22 -19 -5 -13 -4 -14 9 -3 12 10
15 10 15 -3 0 -12 -8 -16 -29 -14 -24 2 -27 5 -18 17 26 33 33 37 47 32 13 -6
12 -7 -2 -10z m-38 -69 c0 -2 -5 -14 -12 -26 l-12 -22 -6 25 c-4 14 -5 28 -3
32 4 7 33 0 33 -9z m-99 -103 c-21 -19 -41 -26 -41 -16 0 12 33 36 48 36 14
-1 12 -5 -7 -20z m-76 -130 c3 -5 1 -10 -4 -10 -6 0 -11 5 -11 10 0 6 2 10 4
10 3 0 8 -4 11 -10z m-75 -111 c0 -6 -4 -7 -10 -4 -5 3 -10 11 -10 16 0 6 5 7
10 4 6 -3 10 -11 10 -16z m-3 -66 c-3 -3 -10 -2 -16 2 -7 4 -7 10 2 20 10 11
13 11 15 -2 2 -8 1 -17 -1 -20z m-202 -223 c3 -5 1 -10 -4 -10 -6 0 -11 5 -11
10 0 6 2 10 4 10 3 0 8 -4 11 -10z"/>
<path d="M1558 1793 c-6 -23 8 -43 31 -43 13 0 12 2 -1 13 -9 6 -18 21 -20 32
-4 19 -4 19 -10 -2z"/>
<path d="M1556 1711 c-3 -5 1 -11 9 -15 8 -3 15 -1 15 4 0 13 -18 22 -24 11z"/>
<path d="M1452 1586 c10 -7 17 -15 15 -17 -1 -2 2 -1 8 4 6 5 4 11 -5 17 -23
15 -37 11 -18 -4z"/>
<path d="M1401 1565 c-26 -12 -32 -19 -28 -36 4 -16 3 -18 -8 -9 -8 7 -15 7
-19 1 -3 -5 0 -12 6 -14 7 -3 2 -6 -12 -6 -20 -1 -22 -3 -10 -11 8 -5 24 -7
35 -4 15 4 16 3 6 -4 -7 -5 -10 -15 -6 -21 5 -9 11 -9 23 1 14 11 15 10 9 -12
-6 -24 -5 -24 8 -6 11 14 12 23 4 33 -9 10 -8 13 0 13 15 0 41 25 41 39 0 17
-17 13 -24 -5 -5 -13 -9 -14 -21 -4 -21 18 -19 27 10 34 14 4 25 11 25 16 0
12 2 12 -39 -5z"/>
<path d="M1310 1470 c-13 -8 -12 -10 3 -10 9 0 17 5 17 10 0 12 -1 12 -20 0z"/>
<path d="M1280 1431 c0 -11 -10 -21 -22 -25 -18 -5 -20 -8 -9 -15 7 -5 10 -14
7 -20 -4 -6 -2 -11 3 -11 6 0 11 8 11 18 0 12 8 17 28 17 15 1 30 -4 34 -9 3
-5 13 -2 23 7 15 16 15 17 -7 19 -42 2 -47 3 -53 10 -4 4 9 5 29 3 20 -2 39 1
42 6 3 5 2 9 -3 10 -70 9 -83 7 -83 -10z"/>
<path d="M1303 1373 c-7 -2 -13 -11 -13 -19 0 -9 -5 -12 -11 -8 -8 4 -8 0 0
-15 15 -27 31 -27 24 -1 -3 11 -1 20 4 20 5 0 10 7 10 15 0 8 -1 15 -1 14 -1
0 -7 -3 -13 -6z"/>
<path d="M390 989 c-11 -6 -12 -11 -4 -16 6 -5 14 -15 18 -23 3 -9 5 -6 2 7
-2 12 1 24 7 26 7 2 7 6 1 10 -5 3 -16 1 -24 -4z"/>
<path d="M422 888 c6 -18 28 -21 28 -4 0 9 -7 16 -16 16 -9 0 -14 -5 -12 -12z"/>
<path d="M804 813 c-21 -7 -3 -43 20 -42 19 1 19 2 2 6 -12 3 -15 8 -8 12 14
8 1 29 -14 24z"/>
<path d="M460 749 c0 -5 5 -7 10 -4 6 3 10 8 10 11 0 2 -4 4 -10 4 -5 0 -10
-5 -10 -11z"/>
<path d="M498 733 c6 -2 18 -2 25 0 6 3 1 5 -13 5 -14 0 -19 -2 -12 -5z"/>
<path d="M490 684 c0 -10 5 -14 15 -11 8 4 17 2 20 -4 4 -5 -1 -12 -9 -15 -9
-3 -16 -13 -16 -21 0 -8 5 -11 11 -8 6 4 17 -1 24 -11 8 -11 15 -14 15 -7 0 6
-4 15 -10 18 -18 11 -11 35 8 29 15 -5 15 -4 2 6 -11 9 -12 13 -2 17 17 7 15
23 -3 23 -8 0 -15 -5 -15 -10 0 -7 -6 -7 -20 0 -16 9 -20 8 -20 -6z"/>
<path d="M566 631 c-4 -7 -5 -15 -2 -18 9 -9 19 4 14 18 -4 11 -6 11 -12 0z"/>
<path d="M670 530 c12 -8 10 -10 -10 -10 -19 0 -21 -3 -11 -9 9 -6 21 -5 32 2
13 8 15 13 6 19 -7 4 -16 8 -22 8 -5 0 -3 -5 5 -10z"/>
</g>
</svg>
